<?xml version="1.0" standalone="no"?><!DOCTYPE svg PUBLIC "-//W3C//DTD SVG 1.1//EN" "http://www.w3.org/Graphics/SVG/1.1/DTD/svg11.dtd"><svg t="1723631591034" class="icon" viewBox="0 0 1024 1024" version="1.1" xmlns="http://www.w3.org/2000/svg" p-id="7174" xmlns:xlink="http://www.w3.org/1999/xlink" width="256" height="256"><path d="M421.647059 0a391.529412 391.529412 0 1 0 0 783.058824 391.529412 391.529412 0 0 0 0-783.058824z m0 120.470588a271.058824 271.058824 0 1 1 0 542.117647 271.058824 271.058824 0 0 1 0-542.117647z" fill="#595959" p-id="7175"></path><path d="M589.884235 620.001882a60.235294 60.235294 0 0 1 79.510589-4.999529l5.662117 4.999529 254.795294 254.795294a60.235294 60.235294 0 0 1-79.510588 90.232471l-5.662118-5.059765-254.795294-254.795294a60.235294 60.235294 0 0 1 0-85.172706z" fill="#595959" p-id="7176"></path></svg>